<svg width="128" height="128" viewBox="0 0 128 128" fill="none" xmlns="http://www.w3.org/2000/svg">
<path d="M18.5109 98.2407L26.7749 102.371L24.2888 81.6132C24.0467 79.5922 24.7507 77.5725 26.1965 76.1398L33.1591 69.2405C35.848 66.576 40.4248 68.127 40.9399 71.8772L45.8886 107.903C46.3442 111.22 43.2118 113.893 40.008 112.923L31.334 110.294C29.2449 109.661 27.6958 107.898 27.337 105.745L26.7749 102.371L18.5109 98.2407C17.2199 97.5954 16.3383 96.346 16.1628 94.9134L13.0793 69.7309C13.0266 69.3004 13.0164 68.8657 13.0488 68.4332C14.5921 47.8833 25.4282 28.1887 45.0547 21.9054C51.3158 19.901 57.8807 18.5 64 18.5C69.9583 18.5 76.2792 19.8282 82.304 21.7485C102.014 28.0303 112.955 47.7258 115.083 68.3023C115.137 68.8215 115.132 69.345 115.069 69.8631L111.981 95.0794C111.817 96.4195 111.033 97.605 109.865 98.2815L100.815 103.521L100.56 105.561C100.279 107.811 98.6995 109.684 96.5295 110.342L88.2407 112.854C84.9805 113.841 81.8175 111.06 82.3806 107.7L88.437 71.5601C89.054 67.8786 93.5728 66.4327 96.2123 69.0722L101.961 74.8208C103.41 76.2698 104.104 78.3097 103.839 80.3417L100.815 103.521L109.865 98.2815C111.033 97.605 111.817 96.4195 111.981 95.0794L115.069 69.8631C115.132 69.345 115.137 68.8215 115.083 68.3023C112.955 47.7258 102.014 28.0303 82.304 21.7485C76.2792 19.8282 69.9583 18.5 64 18.5C57.8807 18.5 51.3158 19.901 45.0547 21.9054C25.4282 28.1887 14.5921 47.8833 13.0488 68.4332C13.0164 68.8657 13.0266 69.3004 13.0793 69.7309L16.1628 94.9134C16.3383 96.346 17.2199 97.5954 18.5109 98.2407Z" fill="#FFE51F"/>
<path d="M26.7749 102.371L18.5109 98.2407C17.2199 97.5954 16.3383 96.346 16.1628 94.9134L13.0793 69.7309C13.0266 69.3004 13.0164 68.8657 13.0488 68.4332C14.5921 47.8833 25.4282 28.1887 45.0547 21.9054C51.3158 19.901 57.8807 18.5 64 18.5C69.9583 18.5 76.2792 19.8282 82.304 21.7485C102.014 28.0303 112.955 47.7258 115.083 68.3023C115.137 68.8215 115.132 69.345 115.069 69.8631L111.981 95.0794C111.817 96.4195 111.033 97.605 109.865 98.2815L100.815 103.521M26.7749 102.371L27.337 105.745C27.6958 107.898 29.2449 109.661 31.334 110.294L40.008 112.923C43.2118 113.893 46.3442 111.22 45.8886 107.903L40.9399 71.8772C40.4248 68.127 35.848 66.576 33.1591 69.2405L26.1965 76.1398C24.7507 77.5725 24.0467 79.5922 24.2888 81.6132L26.7749 102.371ZM100.815 103.521L100.56 105.561C100.279 107.811 98.6995 109.684 96.5295 110.342L88.2407 112.854C84.9805 113.841 81.8175 111.06 82.3806 107.7L88.437 71.5601C89.054 67.8786 93.5728 66.4327 96.2123 69.0722L101.961 74.8208C103.41 76.2698 104.104 78.3097 103.839 80.3417L100.815 103.521Z" stroke="#333333" stroke-width="5.6"/>
</svg>
